<svg width="38" height="38" viewBox="0 0 38 38" fill="none" xmlns="http://www.w3.org/2000/svg">
<g clip-path="url(#clip0_1_150)">
<path d="M12.6667 26.9167L19 33.25M19 33.25L25.3333 26.9167M19 33.25V19M33.06 28.6425C34.4365 27.6745 35.4688 26.2931 36.007 24.6987C36.5452 23.1042 36.5614 21.3798 36.0531 19.7756C35.5448 18.1714 34.5386 16.7708 33.1804 15.7772C31.8223 14.7837 30.1828 14.2487 28.5 14.25H26.505C26.0288 12.3941 25.1378 10.6705 23.899 9.20881C22.6603 7.74713 21.1061 6.58551 19.3534 5.81141C17.6007 5.03731 15.6953 4.67089 13.7806 4.73975C11.8658 4.80861 9.99163 5.31094 8.29911 6.20894C6.60659 7.10694 5.13984 8.37719 4.00928 9.92408C2.87872 11.471 2.11382 13.2542 1.77215 15.1395C1.43048 17.0247 1.52095 18.963 2.03675 20.8082C2.55256 22.6535 3.48025 24.3577 4.74999 25.7925" stroke="#F3F3F3" stroke-width="4" stroke-linecap="round" stroke-linejoin="round"/>
</g>
<defs>
<clipPath id="clip0_1_150">
<rect width="38" height="38" fill="white"/>
</clipPath>
</defs>
</svg>
