<svg width="45" height="45" viewBox="0 0 45 45" fill="none" xmlns="http://www.w3.org/2000/svg">
<g clip-path="url(#clip0_191_43)">
<path d="M16.875 35.6249C7.5 38.4374 7.5 30.9374 3.75 29.9999M30 41.2499V33.9937C30.0703 33.0996 29.9495 32.2008 29.6457 31.3571C29.3418 30.5133 28.8617 29.7439 28.2375 29.0999C34.125 28.4437 40.3125 26.2124 40.3125 15.9749C40.312 13.3571 39.305 10.8397 37.5 8.94369C38.3547 6.65339 38.2943 4.12185 37.3312 1.87494C37.3312 1.87494 35.1188 1.21869 30 4.64994C25.7025 3.48523 21.1725 3.48523 16.875 4.64994C11.7562 1.21869 9.54375 1.87494 9.54375 1.87494C8.58071 4.12185 8.52027 6.65339 9.375 8.94369C7.55649 10.8538 6.54848 13.3939 6.5625 16.0312C6.5625 26.1937 12.75 28.4249 18.6375 29.1562C18.0206 29.7936 17.5449 30.5538 17.2412 31.3873C16.9375 32.2208 16.8128 33.1088 16.875 33.9937V41.2499" stroke="url(#paint0_linear_191_43)" stroke-width="4" stroke-linecap="round" stroke-linejoin="round"/>
</g>
<defs>
<linearGradient id="paint0_linear_191_43" x1="22.0312" y1="1.82471" x2="22.0313" y2="41.2499" gradientUnits="userSpaceOnUse">
<stop stop-color="#F5F5F5"/>
<stop offset="1" stop-color="#126CBB"/>
</linearGradient>
<clipPath id="clip0_191_43">
<rect width="45" height="45" fill="white"/>
</clipPath>
</defs>
</svg>
