<svg width="257" height="327" viewBox="0 0 257 327" fill="none" xmlns="http://www.w3.org/2000/svg">
<path d="M20.7294 257.748C-2.38242 280.049 1.00641 307.379 7.32349 315.907C13.6406 324.435 72.24 324.468 127.921 324.5C183.603 324.531 239.53 319.548 239.53 319.548C239.53 319.548 249.257 318.049 249.265 304.51C249.273 290.971 243.682 273.509 232.514 257.867C214.286 232.337 162.264 221.222 162.264 221.222C162.264 221.222 176.107 249.812 127.963 249.785C79.8196 249.758 89.8048 221.182 89.8048 221.182C89.8048 221.182 43.8413 235.447 20.7294 257.748Z" fill="url(#paint0_linear_1_319)"/>
<path fill-rule="evenodd" clip-rule="evenodd" d="M201.965 101.15L195.641 103.719C195.641 103.719 195.284 102.081 195.643 101.146C196.551 98.7788 201.965 101.15 201.965 101.15Z" fill="url(#paint1_linear_1_319)"/>
<path d="M195.643 101.146C196.551 98.7788 201.965 101.15 201.965 101.15L201.976 80.34L239.675 62.3094L239.636 131.257C239.636 131.257 233.717 136.589 232.579 141.282C230.792 148.655 232.307 158.392 239.62 159.338C247.381 160.341 250.64 149.247 249.357 141.292C248.638 136.835 243.77 131.26 243.77 131.26L243.809 62.3117C243.809 62.3117 247.944 58.3026 254.269 53.7931C260.593 49.2836 137.343 0.324141 128.102 2.57537C118.861 4.82661 -1.51976 42.8685 2.60774 53.6518C6.73525 64.435 53.6545 80.2567 53.6545 80.2567L53.6428 101.066L59.7202 103.528L128.03 131.195L195.641 103.719C195.641 103.719 195.284 102.081 195.643 101.146Z" fill="url(#paint2_linear_1_319)"/>
<path d="M201.965 101.15C201.965 101.15 196.551 98.7788 195.643 101.146C195.284 102.081 195.641 103.719 195.641 103.719M201.965 101.15L201.976 80.34L239.675 62.3094L239.636 131.257C239.636 131.257 233.717 136.589 232.579 141.282C230.792 148.655 232.307 158.392 239.62 159.338C247.381 160.341 250.64 149.247 249.357 141.292C248.638 136.835 243.77 131.26 243.77 131.26L243.809 62.3117C243.809 62.3117 247.944 58.3026 254.269 53.7931C260.593 49.2836 137.343 0.324141 128.102 2.57537C118.861 4.82661 -1.51976 42.8685 2.60774 53.6518C6.73525 64.435 53.6545 80.2567 53.6545 80.2567L53.6428 101.066L59.7202 103.528M201.965 101.15L195.641 103.719M59.7216 101.07L59.7202 103.528M59.7202 103.528C59.7202 103.528 59.7107 120.367 59.7047 131.156C59.6985 142.122 57.8414 148.437 59.6889 159.237C60.9829 166.801 62.0888 171.099 65.2708 178.044C71.4485 191.527 89.813 206.64 89.813 206.64C89.813 206.64 112.092 221.634 127.979 221.203C145.598 220.725 168.597 200.918 168.597 200.918L190.25 178.114C190.25 178.114 194.923 160.726 195.616 149.284C195.953 143.714 195.621 140.574 195.624 134.993C195.631 122.78 195.641 103.719 195.641 103.719M59.7202 103.528L128.03 131.195L195.641 103.719M7.32349 315.907C1.00641 307.379 -2.38242 280.049 20.7294 257.748C43.8413 235.447 89.8048 221.182 89.8048 221.182C89.8048 221.182 79.8196 249.758 127.963 249.785C176.107 249.812 162.264 221.222 162.264 221.222C162.264 221.222 214.286 232.337 232.514 257.867C243.682 273.509 249.273 290.971 249.265 304.51C249.257 318.049 239.53 319.548 239.53 319.548C239.53 319.548 183.603 324.531 127.921 324.5C72.24 324.468 13.6406 324.435 7.32349 315.907Z" stroke="url(#paint3_linear_1_319)" stroke-width="5"/>
<defs>
<linearGradient id="paint0_linear_1_319" x1="128.532" y1="2.4999" x2="128.352" y2="324.5" gradientUnits="userSpaceOnUse">
<stop stop-color="#D9D9D9"/>
<stop offset="1" stop-color="#126CBB"/>
</linearGradient>
<linearGradient id="paint1_linear_1_319" x1="128.532" y1="2.4999" x2="128.352" y2="324.5" gradientUnits="userSpaceOnUse">
<stop stop-color="#D9D9D9"/>
<stop offset="1" stop-color="#126CBB"/>
</linearGradient>
<linearGradient id="paint2_linear_1_319" x1="128.532" y1="2.4999" x2="128.352" y2="324.5" gradientUnits="userSpaceOnUse">
<stop stop-color="#D9D9D9"/>
<stop offset="1" stop-color="#126CBB"/>
</linearGradient>
<linearGradient id="paint3_linear_1_319" x1="2.44206" y1="163.429" x2="253.893" y2="163.57" gradientUnits="userSpaceOnUse">
<stop stop-color="white"/>
<stop offset="1" stop-color="#126CBB"/>
</linearGradient>
</defs>
</svg>
