<svg width="382" height="467" viewBox="0 0 382 467" fill="none" xmlns="http://www.w3.org/2000/svg">
<g filter="url(#filter0_d_1_318)">
<path d="M105.666 289.748C82.554 312.049 85.9428 339.379 92.2599 347.907C98.577 356.435 157.176 356.468 212.858 356.5C268.539 356.531 324.467 351.548 324.467 351.548C324.467 351.548 334.194 350.049 334.201 336.51C334.209 322.971 328.618 305.509 317.45 289.867C299.223 264.337 247.2 253.222 247.2 253.222C247.2 253.222 261.044 281.812 212.9 281.785C164.756 281.758 174.741 253.182 174.741 253.182C174.741 253.182 128.778 267.447 105.666 289.748Z" fill="url(#paint0_linear_1_318)"/>
<path fill-rule="evenodd" clip-rule="evenodd" d="M286.901 133.15L280.578 135.719C280.578 135.719 280.221 134.081 280.579 133.146C281.487 130.779 286.901 133.15 286.901 133.15Z" fill="url(#paint1_linear_1_318)"/>
<path d="M280.579 133.146C281.487 130.779 286.901 133.15 286.901 133.15L286.913 112.34L324.611 94.3094L324.573 163.257C324.573 163.257 318.654 168.589 317.516 173.282C315.728 180.655 317.244 190.392 324.557 191.338C332.317 192.341 335.576 181.247 334.293 173.292C333.574 168.835 328.706 163.26 328.706 163.26L328.745 94.3117C328.745 94.3117 332.881 90.3026 339.205 85.7931C345.53 81.2836 222.28 32.3241 213.039 34.5754C203.798 36.8266 83.4166 74.8685 87.5441 85.6518C91.6717 96.435 138.591 112.257 138.591 112.257L138.579 133.066L144.657 135.528L212.966 163.195L280.578 135.719C280.578 135.719 280.221 134.081 280.579 133.146Z" fill="url(#paint2_linear_1_318)"/>
<path d="M286.901 133.15C286.901 133.15 281.487 130.779 280.579 133.146C280.221 134.081 280.578 135.719 280.578 135.719M286.901 133.15L286.913 112.34L324.611 94.3094L324.573 163.257C324.573 163.257 318.654 168.589 317.516 173.282C315.728 180.655 317.244 190.392 324.557 191.338C332.317 192.341 335.576 181.247 334.293 173.292C333.574 168.835 328.706 163.26 328.706 163.26L328.745 94.3117C328.745 94.3117 332.881 90.3026 339.205 85.7931C345.53 81.2836 222.28 32.3241 213.039 34.5754C203.798 36.8266 83.4166 74.8685 87.5441 85.6518C91.6717 96.435 138.591 112.257 138.591 112.257L138.579 133.066L144.657 135.528M286.901 133.15L280.578 135.719M144.658 133.07L144.657 135.528M144.657 135.528C144.657 135.528 144.647 152.367 144.641 163.156C144.635 174.122 142.778 180.437 144.625 191.237C145.919 198.801 147.025 203.099 150.207 210.044C156.385 223.527 174.749 238.64 174.749 238.64C174.749 238.64 197.028 253.634 212.916 253.203C230.534 252.725 253.533 232.918 253.533 232.918L275.187 210.114C275.187 210.114 279.859 192.726 280.552 181.284C280.89 175.714 280.557 172.574 280.56 166.993C280.567 154.78 280.578 135.719 280.578 135.719M144.657 135.528L212.966 163.195L280.578 135.719M92.2599 347.907C85.9428 339.379 82.554 312.049 105.666 289.748C128.778 267.447 174.741 253.182 174.741 253.182C174.741 253.182 164.756 281.758 212.9 281.785C261.044 281.812 247.2 253.222 247.2 253.222C247.2 253.222 299.223 264.337 317.45 289.867C328.618 305.509 334.209 322.971 334.201 336.51C334.194 350.049 324.467 351.548 324.467 351.548C324.467 351.548 268.539 356.531 212.858 356.5C157.176 356.468 98.577 356.435 92.2599 347.907Z" stroke="url(#paint3_linear_1_318)" stroke-width="5"/>
<path d="M73.7075 222.336C76.2478 226.433 73.3929 232.802 67.3308 236.56C61.2687 240.319 78.8541 203.244 51.7548 235.947C43.932 245.388 40.6519 248.506 40.0894 248.074C40.0715 248.061 40.0564 248.043 40.044 248.023C39.0915 246.432 53.875 224.362 58.1315 221.723C64.1936 217.964 71.1672 218.239 73.7075 222.336Z" fill="url(#paint4_linear_1_318)"/>
<path d="M67.3308 236.56C61.2687 240.319 78.8541 203.244 51.7548 235.947C43.932 245.388 40.6519 248.506 40.0894 248.074L111.498 329.435L128.46 304.192L67.3308 236.56Z" fill="url(#paint5_linear_1_318)"/>
<path d="M73.7075 222.336C76.2478 226.433 73.3929 232.802 67.3308 236.56L128.46 304.192L136.363 292.43L73.7075 222.336Z" fill="url(#paint6_linear_1_318)"/>
<path d="M189.041 417.784C206.198 424.426 221.978 376.369 207.85 392.028C204.669 387.448 137.297 313.969 137.297 313.969L120.651 339.862C120.651 339.862 171.884 411.142 189.041 417.784Z" fill="url(#paint7_linear_1_318)"/>
<path d="M207.85 392.028C214.235 388.75 215.737 381.227 215.737 381.227C215.737 381.227 172.6 332.969 144.96 302.048C141.967 306.703 137.297 313.969 137.297 313.969C137.297 313.969 204.669 387.448 207.85 392.028Z" fill="url(#paint8_linear_1_318)"/>
<path d="M136.363 292.43L128.46 304.192L137.297 313.969C137.297 313.969 141.967 306.703 144.96 302.048C141.603 298.292 136.363 292.43 136.363 292.43Z" fill="url(#paint9_linear_1_318)"/>
<path d="M111.498 329.435L120.651 339.862L137.297 313.969L128.46 304.192L111.498 329.435Z" fill="url(#paint10_linear_1_318)"/>
<path d="M146.731 299.294C147.173 295.411 141.848 292.973 138.719 288.923C137.799 290.292 136.363 292.43 136.363 292.43C136.363 292.43 141.603 298.292 144.96 302.048C146.076 301.584 146.554 300.84 146.731 299.294Z" fill="url(#paint11_linear_1_318)"/>
<path d="M138.719 288.923C136.342 288.663 127.015 281.973 132.633 288.256C134.089 289.886 136.363 292.43 136.363 292.43C136.363 292.43 137.799 290.292 138.719 288.923Z" fill="url(#paint12_linear_1_318)"/>
<path d="M137.685 315.133C138.179 315.672 138.905 316.464 139.829 317.473C141.677 319.491 144.321 322.379 147.504 325.859C153.87 332.819 162.39 342.147 171.01 351.617C179.63 361.088 188.35 370.702 195.112 378.233C198.493 381.999 201.384 385.244 203.529 387.689C205.686 390.148 207.062 391.769 207.439 392.313L207.799 392.831L208.16 392.429C209.741 391.603 211.027 390.528 212.069 389.376C212.276 389.359 212.39 389.422 212.47 389.506C212.602 389.643 212.732 389.928 212.787 390.434C212.896 391.437 212.681 392.995 212.15 394.913C211.622 396.817 210.796 399.027 209.725 401.313C207.58 405.891 204.475 410.722 200.87 413.989C197.26 417.26 193.254 418.878 189.222 417.318C187.159 416.519 184.534 414.725 181.5 412.148C178.476 409.58 175.081 406.264 171.48 402.463C164.278 394.861 156.275 385.34 148.802 376.02C141.33 366.7 134.394 357.587 129.325 350.804C126.79 347.413 124.723 344.604 123.289 342.643C122.572 341.663 122.014 340.894 121.635 340.371C121.476 340.152 121.349 339.976 121.254 339.845L137.366 314.785C137.458 314.886 137.565 315.002 137.685 315.133ZM190.341 353.566C197.461 361.531 203.717 368.529 208.193 373.537C210.43 376.04 212.224 378.046 213.457 379.426C214.074 380.116 214.55 380.65 214.873 381.011C215.005 381.159 215.112 381.278 215.191 381.367C215.186 381.388 215.182 381.41 215.176 381.434C215.124 381.637 215.044 381.934 214.927 382.302C214.693 383.038 214.314 384.054 213.743 385.17C213.197 386.236 212.475 387.383 211.54 388.464C211.031 388.611 210.466 388.935 209.849 389.414C209.268 389.866 208.614 390.474 207.886 391.25C207.237 390.434 205.985 388.973 204.28 387.029C202.132 384.579 199.238 381.332 195.856 377.565C189.092 370.031 180.371 360.416 171.75 350.945C163.129 341.473 154.608 332.145 148.242 325.184C145.059 321.704 142.414 318.816 140.566 316.798C139.642 315.789 138.916 314.997 138.422 314.458C138.215 314.231 138.048 314.05 137.925 313.915C138.058 313.707 138.252 313.406 138.494 313.031C138.978 312.277 139.656 311.223 140.427 310.024C141.849 307.812 143.589 305.105 145.025 302.871C158.779 318.259 176.252 337.804 190.341 353.566ZM136.668 314.021L120.588 339.034L112.127 329.394L128.517 305.002L136.668 314.021ZM136.861 293.737C137.405 294.346 138.165 295.196 139.029 296.163C140.673 298.002 142.695 300.265 144.333 302.097C142.87 304.373 141.057 307.194 139.585 309.484C138.814 310.683 138.138 311.737 137.653 312.491C137.488 312.747 137.345 312.968 137.229 313.149L129.092 304.147L136.419 293.243C136.543 293.382 136.692 293.548 136.861 293.737ZM60.3095 227.092C62.427 224.976 63.9422 223.772 65.0002 223.218C65.5294 222.94 65.8991 222.85 66.145 222.855C66.3623 222.859 66.4951 222.934 66.6005 223.069C66.724 223.226 66.8304 223.494 66.8919 223.904C66.9524 224.306 66.963 224.801 66.9326 225.372C66.8716 226.515 66.6496 227.892 66.3916 229.305C66.1364 230.704 65.844 232.148 65.6562 233.375C65.562 233.991 65.492 234.568 65.4656 235.071C65.4396 235.565 65.4531 236.026 65.5484 236.396C65.642 236.759 65.8547 237.169 66.3238 237.296C66.6189 237.376 66.9243 237.313 67.2199 237.183L127.826 304.237L111.445 328.617L40.9848 248.337C41.1007 248.266 41.2229 248.184 41.3485 248.09C41.8891 247.687 42.618 247.02 43.5569 246.062C45.2046 244.382 47.544 241.758 50.7248 237.964L52.1402 236.266C55.5224 232.185 58.2005 229.2 60.3095 227.092ZM138.757 289.762C139.46 290.595 140.238 291.358 141.014 292.074C141.971 292.955 142.885 293.731 143.718 294.532C145.386 296.133 146.425 297.559 146.234 299.238C146.149 299.976 145.999 300.462 145.777 300.806C145.614 301.06 145.395 301.262 145.083 301.434C143.445 299.602 141.42 297.337 139.776 295.497C138.911 294.53 138.151 293.679 137.607 293.071C137.351 292.784 137.142 292.552 136.994 292.386C137.001 292.375 137.009 292.364 137.016 292.353C137.165 292.131 137.374 291.821 137.611 291.469C137.963 290.945 138.378 290.326 138.757 289.762ZM132.201 288.524C132.221 288.545 132.24 288.568 132.26 288.59C132.988 289.405 133.921 290.448 134.671 291.287C135.046 291.707 135.376 292.076 135.612 292.34C135.655 292.388 135.694 292.432 135.73 292.473L128.401 303.382L68.0954 236.662C70.9464 234.774 73.0672 232.31 74.2016 229.78C74.9816 228.04 75.302 226.246 75.0501 224.59L132.201 288.524ZM131.616 286.217C131.85 286.306 132.135 286.43 132.463 286.586C133.425 287.045 134.601 287.693 135.75 288.272C136.314 288.557 136.865 288.821 137.353 289.023C137.542 289.102 137.729 289.171 137.908 289.232C137.534 289.789 137.127 290.396 136.781 290.911C136.602 291.178 136.439 291.419 136.306 291.617L135.696 290.933C135.607 290.833 135.513 290.728 135.417 290.62C134.667 289.781 133.734 288.738 133.006 287.923C132.322 287.158 131.876 286.604 131.616 286.217ZM58.3953 222.148C61.3527 220.314 64.514 219.477 67.2201 219.583C69.9298 219.69 72.1264 220.734 73.2828 222.599C74.4391 224.464 74.3977 226.896 73.2883 229.37C72.1803 231.842 70.0253 234.302 67.0678 236.135C66.7586 236.327 66.6208 236.332 66.5914 236.331C66.576 236.313 66.5463 236.263 66.5162 236.146C66.4595 235.926 66.4397 235.586 66.4641 235.123C66.4881 234.667 66.5521 234.128 66.6442 233.527C66.8291 232.318 67.1152 230.913 67.376 229.484C67.6341 228.07 67.8661 226.638 67.9308 225.426C67.9631 224.819 67.9552 224.25 67.8808 223.755C67.8074 223.267 67.6626 222.804 67.3869 222.452C67.093 222.077 66.6769 221.864 66.1639 221.855C65.6793 221.846 65.1358 222.018 64.5371 222.332C63.3381 222.959 61.7336 224.255 59.6023 226.385C57.7299 228.257 55.4284 230.795 52.6097 234.144L51.37 235.628C47.461 240.345 44.6961 243.472 42.8428 245.363C41.9136 246.311 41.2272 246.932 40.7501 247.288C40.6901 247.333 40.6346 247.371 40.5841 247.406C40.6395 247.224 40.7223 247.002 40.8335 246.739C41.1439 246.004 41.6489 245.02 42.3047 243.859C43.6141 241.541 45.4979 238.563 47.5475 235.547C49.5969 232.531 51.8071 229.486 53.7666 227.034C54.7466 225.808 55.66 224.734 56.4571 223.888C57.2624 223.034 57.922 222.441 58.3953 222.148Z" stroke="black" stroke-opacity="0.16"/>
</g>
<defs>
<filter id="filter0_d_1_318" x="0" y="0" width="381.94" height="466.418" filterUnits="userSpaceOnUse" color-interpolation-filters="sRGB">
<feFlood flood-opacity="0" result="BackgroundImageFix"/>
<feColorMatrix in="SourceAlpha" type="matrix" values="0 0 0 0 0 0 0 0 0 0 0 0 0 0 0 0 0 0 127 0" result="hardAlpha"/>
<feOffset dy="8"/>
<feGaussianBlur stdDeviation="20"/>
<feComposite in2="hardAlpha" operator="out"/>
<feColorMatrix type="matrix" values="0 0 0 0 1 0 0 0 0 1 0 0 0 0 1 0 0 0 0.53 0"/>
<feBlend mode="normal" in2="BackgroundImageFix" result="effect1_dropShadow_1_318"/>
<feBlend mode="normal" in="SourceGraphic" in2="effect1_dropShadow_1_318" result="shape"/>
</filter>
<linearGradient id="paint0_linear_1_318" x1="213.469" y1="34.4999" x2="213.288" y2="356.5" gradientUnits="userSpaceOnUse">
<stop stop-color="#D9D9D9"/>
<stop offset="1" stop-color="#126CBB"/>
</linearGradient>
<linearGradient id="paint1_linear_1_318" x1="213.469" y1="34.4999" x2="213.288" y2="356.5" gradientUnits="userSpaceOnUse">
<stop stop-color="#D9D9D9"/>
<stop offset="1" stop-color="#126CBB"/>
</linearGradient>
<linearGradient id="paint2_linear_1_318" x1="213.469" y1="34.4999" x2="213.288" y2="356.5" gradientUnits="userSpaceOnUse">
<stop stop-color="#D9D9D9"/>
<stop offset="1" stop-color="#126CBB"/>
</linearGradient>
<linearGradient id="paint3_linear_1_318" x1="87.3785" y1="195.429" x2="338.83" y2="195.57" gradientUnits="userSpaceOnUse">
<stop stop-color="white"/>
<stop offset="1" stop-color="#126CBB"/>
</linearGradient>
<linearGradient id="paint4_linear_1_318" x1="66.914" y1="216.278" x2="191.071" y2="416.526" gradientUnits="userSpaceOnUse">
<stop stop-color="#D9D9D9"/>
<stop offset="1" stop-color="#126CBB"/>
</linearGradient>
<linearGradient id="paint5_linear_1_318" x1="66.914" y1="216.278" x2="191.071" y2="416.526" gradientUnits="userSpaceOnUse">
<stop stop-color="#D9D9D9"/>
<stop offset="1" stop-color="#126CBB"/>
</linearGradient>
<linearGradient id="paint6_linear_1_318" x1="66.914" y1="216.278" x2="191.071" y2="416.526" gradientUnits="userSpaceOnUse">
<stop stop-color="#D9D9D9"/>
<stop offset="1" stop-color="#126CBB"/>
</linearGradient>
<linearGradient id="paint7_linear_1_318" x1="66.914" y1="216.278" x2="191.071" y2="416.526" gradientUnits="userSpaceOnUse">
<stop stop-color="#D9D9D9"/>
<stop offset="1" stop-color="#126CBB"/>
</linearGradient>
<linearGradient id="paint8_linear_1_318" x1="66.914" y1="216.278" x2="191.071" y2="416.526" gradientUnits="userSpaceOnUse">
<stop stop-color="#D9D9D9"/>
<stop offset="1" stop-color="#126CBB"/>
</linearGradient>
<linearGradient id="paint9_linear_1_318" x1="66.914" y1="216.278" x2="193.097" y2="419.794" gradientUnits="userSpaceOnUse">
<stop stop-color="#EF1C1C"/>
<stop offset="1" stop-color="#891010"/>
</linearGradient>
<linearGradient id="paint10_linear_1_318" x1="66.914" y1="216.278" x2="193.097" y2="419.794" gradientUnits="userSpaceOnUse">
<stop stop-color="#FB1818"/>
<stop offset="1" stop-color="#950E0E"/>
</linearGradient>
<linearGradient id="paint11_linear_1_318" x1="66.914" y1="216.278" x2="193.097" y2="419.794" gradientUnits="userSpaceOnUse">
<stop stop-color="#F32020"/>
<stop offset="1" stop-color="#8D1212"/>
</linearGradient>
<linearGradient id="paint12_linear_1_318" x1="66.914" y1="216.278" x2="193.097" y2="419.794" gradientUnits="userSpaceOnUse">
<stop stop-color="#FE0F0F"/>
<stop offset="1" stop-color="#980909"/>
</linearGradient>
</defs>
</svg>
